<svg width="140" height="39" viewBox="0 0 140 39" fill="none" xmlns="http://www.w3.org/2000/svg">
<g clip-path="url(#clip0_0_438)">
<path d="M62.2542 26.073C61.7416 26.6077 61.2099 27.0872 60.6593 27.5113C60.1087 27.9354 59.5011 28.3042 58.8365 28.6177C58.1909 28.9127 57.4789 29.134 56.7004 29.2815C55.9219 29.4474 55.0485 29.5304 54.0802 29.5304C52.6181 29.5304 51.2605 29.2723 50.0074 28.7559C48.7542 28.2396 47.6719 27.5389 46.7605 26.6538C45.8491 25.7503 45.1371 24.69 44.6245 23.473C44.1118 22.2559 43.8555 20.9559 43.8555 19.573V19.5176C43.8555 18.1347 44.1118 16.8439 44.6245 15.6453C45.1371 14.4283 45.8491 13.368 46.7605 12.4645C47.6719 11.5425 48.7637 10.8233 50.0359 10.307C51.308 9.77226 52.7131 9.50488 54.2511 9.50488C55.1814 9.50488 56.0264 9.57864 56.7859 9.72616C57.5644 9.87368 58.2669 10.0765 58.8935 10.3347C59.5201 10.5928 60.0992 10.9063 60.6308 11.2751C61.1625 11.6439 61.6561 12.0496 62.1118 12.4921L59.3207 15.6176C58.5422 14.9354 57.7447 14.4006 56.9283 14.0134C56.1308 13.6262 55.2289 13.4325 54.2226 13.4325C53.3871 13.4325 52.6086 13.5893 51.8871 13.9028C51.1846 14.2162 50.577 14.6496 50.0643 15.2028C49.5517 15.7559 49.1529 16.4013 48.8681 17.1389C48.5833 17.8581 48.4409 18.6325 48.4409 19.4623V19.5176C48.4409 20.3474 48.5833 21.1311 48.8681 21.8687C49.1529 22.6063 49.5422 23.2517 50.0359 23.8049C50.5485 24.3581 51.1561 24.8006 51.8586 25.1325C52.5802 25.446 53.3681 25.6028 54.2226 25.6028C55.3618 25.6028 56.3207 25.3999 57.0992 24.9942C57.8966 24.5886 58.6846 24.0354 59.4631 23.3347L62.2542 26.073Z" fill="white"/>
<path d="M81.0028 29.1985H75.8762L71.604 23.0028H68.1578V29.1985H63.7717V9.8368H72.8857C75.2591 9.8368 77.1009 10.3992 78.411 11.524C79.7401 12.6489 80.4047 14.2162 80.4047 16.2262V16.2815C80.4047 17.8489 80.0059 19.1304 79.2085 20.1262C78.43 21.1035 77.4047 21.8226 76.1325 22.2836L81.0028 29.1985ZM75.9616 16.5028V16.4474C75.9616 15.5254 75.6578 14.834 75.0502 14.373C74.4426 13.912 73.5977 13.6815 72.5154 13.6815H68.1578V19.2411H72.6009C73.6831 19.2411 74.5091 18.9921 75.0787 18.4942C75.6673 17.9964 75.9616 17.3325 75.9616 16.5028Z" fill="white"/>
<path d="M97.5405 29.1985H82.3601V9.8368H97.3981V13.6262H86.7177V17.5538H96.1164V21.3432H86.7177V25.4091H97.5405V29.1985Z" fill="white"/>
<path d="M119.753 19.5176C119.753 20.9006 119.488 22.2006 118.956 23.4177C118.424 24.6162 117.684 25.6765 116.734 26.5985C115.804 27.502 114.684 28.2212 113.374 28.7559C112.083 29.2723 110.668 29.5304 109.13 29.5304C107.592 29.5304 106.178 29.2723 104.886 28.7559C103.595 28.2212 102.475 27.5113 101.526 26.6262C100.595 25.7226 99.8642 24.6716 99.3326 23.473C98.8199 22.2559 98.5636 20.9559 98.5636 19.573V19.5176C98.5636 18.1347 98.8294 16.8439 99.361 15.6453C99.8927 14.4283 100.624 13.368 101.554 12.4645C102.503 11.5425 103.624 10.8233 104.915 10.307C106.225 9.77226 107.649 9.50488 109.187 9.50488C110.725 9.50488 112.14 9.77226 113.431 10.307C114.722 10.8233 115.833 11.5333 116.763 12.4368C117.712 13.3219 118.443 14.373 118.956 15.59C119.488 16.7886 119.753 18.0794 119.753 19.4623V19.5176ZM115.168 19.573V19.5176C115.168 18.6879 115.016 17.9042 114.712 17.1666C114.428 16.429 114.01 15.7836 113.459 15.2304C112.928 14.6772 112.291 14.2439 111.551 13.9304C110.81 13.5985 110.003 13.4325 109.13 13.4325C108.238 13.4325 107.421 13.5893 106.681 13.9028C105.959 14.2162 105.333 14.6496 104.801 15.2028C104.288 15.7559 103.88 16.4013 103.576 17.1389C103.291 17.8581 103.149 18.6325 103.149 19.4623V19.5176C103.149 20.3474 103.291 21.1311 103.576 21.8687C103.88 22.6063 104.298 23.2517 104.829 23.8049C105.38 24.3581 106.016 24.8006 106.738 25.1325C107.478 25.446 108.295 25.6028 109.187 25.6028C110.06 25.6028 110.867 25.446 111.608 25.1325C112.348 24.8191 112.975 24.3857 113.488 23.8325C114.019 23.2794 114.428 22.6432 114.712 21.924C115.016 21.1864 115.168 20.4028 115.168 19.573Z" fill="white"/>
<path d="M139.366 29.1985H135.635L125.98 16.89V29.1985H121.651V9.8368H125.695L135.037 21.7581V9.8368H139.366V29.1985Z" fill="white"/>
<path d="M9.828 36.8535L12.4366 39L11.4515 37.2052C9.89741 34.3736 9.08832 31.2513 9.08832 28.0855V17.9018C9.08832 17.0122 9.24574 16.1284 9.55454 15.2845C10.4187 12.9227 12.845 11.3296 15.5778 11.3296H16.4704C19.2032 11.3296 21.6295 12.9227 22.4936 15.2845C22.8024 16.1284 22.9599 17.0122 22.9599 17.9018V28.0855C22.9599 31.2513 22.1508 34.3736 20.5967 37.2052L19.6115 39L22.2202 36.8535C25.3595 34.2704 27.6311 30.9298 28.7717 27.2188L32.0482 16.5587H30.374V14.5056C30.374 10.6585 28.6964 6.96894 25.7103 4.2486L24.5979 3.23526C22.324 1.16376 19.2399 0 16.0241 0C12.8083 0 9.72415 1.16378 7.4502 3.23531L6.3379 4.2486C3.35176 6.96894 1.67416 10.6585 1.67416 14.5056V16.5587H0L3.27649 27.2188C4.41711 30.9298 6.68869 34.2704 9.828 36.8535Z" fill="white"/>
</g>
<defs>
<clipPath id="clip0_0_438">
<rect width="140" height="39" fill="white"/>
</clipPath>
</defs>
</svg>
